<?xml version="1.0" standalone="no"?><!DOCTYPE svg><svg t="1721988344233" class="icon" viewBox="0 0 1024 1024" version="1.1" p-id="63590" id="mx_n_1721988344233" width="128" height="128">
    <path d="M282.024585 820.998244c-119.982829 0-217.587512-97.704585-217.587512-217.687415 0-111.690927 84.617366-203.900878 193.111415-216.188878C292.814049 278.12839 394.614634 203.001756 510.401561 203.001756c146.456976 0 265.640585 119.18361 265.640585 265.740488 0 11.988293-1.098927 23.976585-2.697366 35.765073 8.891317-1.498537 17.682732-2.497561 26.873757-2.497561 87.914146 0 159.444293 71.430244 159.444292 159.544195 0 87.814244-71.430244 159.544195-159.444292 159.544195l-518.193952-0.099902zM119.483317 603.310829c0 89.612488 72.92878 162.541268 162.541268 162.541269h518.094049c57.443902 0 104.298146-46.754341 104.298146-104.298147 0-57.643707-46.754341-104.298146-104.298146-104.298146-15.085268 0-29.47122 3.096976-42.958049 9.290927-10.689561 27.073561-25.774829 52.348878-44.856195 74.926829l-41.859122-35.864976c32.668098-38.062829 50.550634-86.615415 50.550634-136.766439 0-116.186537-94.507707-210.594341-210.594341-210.594341-86.215805 0-162.641171 52.44878-194.709854 130.472585 22.777756 3.796293 45.955122 11.588683 70.231415 23.477073l95.906341 48.452683-25.075512 49.152-95.107122-48.152975c-28.472195-13.986341-54.646634-20.779707-79.622244-20.779708-89.612488 0.099902-162.541268 72.92878-162.541268 162.441366z" p-id="63591"></path>
</svg>