<?xml version="1.0" standalone="no"?><!DOCTYPE svg><svg t="1" class="icon" viewBox="0 0 1024 1024" version="1" p-id="2" width="128" height="128">
    <path d="M752.2 443.2c0 41.9-40.3 75.8-89.9 75.8-49.6 0-89.9-33.9-89.9-75.8s40.3-75.8 89.9-75.8c49.7 0 89.9 34 89.9 75.8zM145.8 796.1c13.7" p-id="12950" fill=""></path>
    <path d="M899.9 189.9c-2.3-2.2-5.3-4.9-9.8-7.1-4.4-2.2-11.1-3.2-17.6-0.8-13.1 4.8-22.4 18-35.4 27.9-6.5 4.9-14.1 8.4-22.2 7-8.2-1.2-16.7-6.7-24.6-13.8-8.2-7.6-16.9-16-26.5-24.5-9.6-8.5-20-17.5-33-24.9-6.5-3.7-13.6-6.9-21.4-9-7.8-2.1-16.1-3-24.4-2.7-16.7 0.6-32.9 5.7-48.3 12.3-15.5 6.7-30.5 15.1-45.5 24.3-7.5 4.6-14.9 9.5-22.4 14.5-7.7 5.3-14.3 9.9-21.8 13.7-7.4 3.7-15.2 6.5-22.9 7.5-7.8 1-15.5 0.3-23.1-2.3-15.3-5.2-29.6-17.7-43.4-31.8-13.8-14.1-27.4-30.1-42.6-45.7-15.2-15.6-32.2-31.1-52.5-43.7-20.1-12.6-43.8-21.7-68.7-24.9-12.4-1.7-25.1-2-37.6-1.1-12.6 0.9-25 2.8-37.5 5.9-24.9 6.2-49.7 17.7-70.5 35.5-20.8 17.7-36.9 41.4-46.5 67.4-9.7 26.1-13.3 54.4-11.9 82.3 1.4 28 7.9 55.9 18.3 82.4 20.9 53.1 58.1 100.5 106.4 135.4 24.3 17.1 49.4 31 75.1 44.9 12.8 6.9 25.8 13.6 38.9 20.1l9.9 4.9 5 2.4c0.7 0.3-0.6-0.2 1.6 0.7l0.6 0.3 1.3 0.5 2.5 1 20.4 8.2 16.3 6.5c1.4 13.7 6.1 45.3 21.2 85.3 29.9 79 80.9 89.7 80.9 89.7s17.5 4.6 39.6-24.6l22-29.2s-5.4 44.8-9.5 101c0.7-0.1 1.4-0.2 2-0.4 2.1-0.6 4-1.4 6.2-2.7 4.3-2.5 9.5-7.1 15.5-12.4 2-1.7 4-3.5 6.1-5.4 7.2-6.1 16.9-13.9 29.2-20.4 18.1-9.7 38.7-14.6 61-14.6 13.4 0 25.9 1.7 37.5 4.9 10.5 2.9 20.6 7.3 30.2 13 12.6 7.6 22 15.9 29.6 22.6 1.9 1.7 3.8 3.3 5.6 4.9 4.9 4.2 8.2 6.6 11.2 8.2 2.6 1.3 5.8 2.7 12.4 3l-1.9-38.9 0.6 0.4c19.1 9.7 46.9 10.8 63.8 0.9 24.8-16.4 26.2-38.4 23.2-53.7-2.1-10.7-10.4-23.1-16.3-31-13.4-17.7-36.7-50.1-47.1-73.8-15.1-34.3-53.5-49.2-100.9-48.4-21.3-0.7-69.7-1-87.6-0.3-28.7-0.8-53.4 4-72.2 14.6L699 615.8c4.6-0.9 9.5-1.4 15-1.3 34.7 1.1 45.8 17.4 61.6 27.4-36.8-15.8-67.2-21.7-80.5 9.2-15.6-6.2-237.2-94.5-237.2-94.5-1.6-11.6-8.2-37.1-35.1-37.6-13.7-0.2-22.4 5.5-27.9 12.5l-12.8-5.1-20.4-8.1-4-1.6-4.8-2.3-9.7-4.7c-12.9-6.4-25.6-12.9-38.2-19.6-25-13.3-49.9-27.1-71.8-42.3-43.3-30.9-77.3-73.6-96.2-120.7-9.5-23.5-15.3-48.1-16.8-72.6-1.5-24.4 1.5-48.6 9.4-70.4 7.8-21.9 20.7-41.2 37.5-55.8 16.7-14.7 37.1-24.7 58.5-30.3 21.5-5.5 43.9-7.6 64.9-5.1 21 2.4 40.8 9.7 58.5 20.3 17.8 10.6 33.5 24.4 48.3 39 14.8 14.6 28.5 30.2 43.5 45 7.5 7.3 15.3 14.5 24 20.9 8.7 6.4 18.3 12.1 29.1 15.5 10.8 3.5 22.6 4.4 33.4 2.7 10.9-1.7 20.8-5.6 29.6-10.3 8.8-4.6 16.9-10.6 23.8-15.6 7.2-5.1 14.3-10 21.4-14.6 14.2-9.3 28.3-17.6 42.3-24.1 14-6.5 28.1-11.2 41.5-12.1 13.4-1 26 2.3 37.3 8.3 11.3 6 21.5 14 31.1 21.9 9.6 8 18.5 15.9 27.4 23.4 4.7 3.9 9.6 7.3 14.8 10.1 5.3 2.7 11 4.8 17 5.3 6 0.6 12-0.5 17-2.6 5.1-2.1 9.2-5.1 12.8-8.1 7.1-6.1 12.3-12.4 17.3-17.7 4.9-5.2 9.6-9.6 14.3-11.8 4.7-2.2 9.3-2.1 13.2-0.8 3.9 1.3 7.1 3.3 9.5 4.9 4.9 3.4 7.3 5.5 7.8 5.1 0.4-0.3-1.1-3.1-5.5-7.7zM505.6 611.5c-6.6 11.1-14.3 22.6-21.5 32.9-5.5-13.6-11.4-32-16.1-47.9l37.6 15z" p-id="12951" fill=""></path>
</svg>