<?xml version="1.0" standalone="no"?><!DOCTYPE svg><svg t="1721987648898" class="icon" viewBox="0 0 1024 1024" version="1.1" p-id="46198" width="128" height="128">
    <path d="M970.02666667 167.04c11.41333333 0 20.58666667 9.28 20.58666666 20.58666667 0 59.2-16.32 117.01333333-47.04 167.36-50.88 83.09333333-136.96 138.66666667-232.74666666 151.04-0.53333333 4.05333333-1.17333333 8-2.02666667 11.94666666C694.4 584.42666667 634.45333333 632.64 566.4 632.64c-8.21333333 0-16.53333333-0.74666667-24.85333333-2.13333333-7.46666667-1.28-13.65333333-6.61333333-16.10666667-13.86666667-2.45333333-7.25333333-0.64-15.14666667 4.58666667-20.69333333 18.45333333-19.52 28.69333333-45.01333333 28.69333333-71.89333334 0-5.12-0.32-10.24-1.06666667-15.25333333H436.16c-5.65333333 35.30666667-24.21333333 67.30666667-52.69333333 89.81333333-6.18666667 4.8-12.90666667 9.28-20.26666667 13.33333334-3.2 1.81333333-6.61333333 2.66666667-10.13333333 2.66666666-3.94666667 0-7.78666667-1.06666667-11.30666667-3.30666666-6.4-4.16-8.85333333-11.62666667-9.28-19.2-1.38666667-22.18666667-6.61333333-42.77333333-8-46.18666667-3.62666667 2.98666667-5.86666667 5.12-9.17333333 8.42666667 0 0 0 0.10666667-0.10666667 0.10666666-32.53333333 32.64-48.64 77.22666667-44.90666667 122.45333334 71.25333333-9.81333333 144 12.05333333 197.97333334 60.48 5.76 5.22666667 11.09333333 10.45333333 16.32 16.10666666 6.29333333 6.82666667 7.14666667 17.06666667 2.24 24.96-5.01333333 7.89333333-14.61333333 11.41333333-23.57333334 8.64-49.49333333-15.36-104-10.88-150.72 12.05333334-17.81333333 48.85333333-16.42666667 103.57333333 4.16 151.14666666 3.73333333 8.53333333 1.17333333 18.56-6.08 24.32-3.73333333 2.98666667-8.32 4.48-12.8 4.48-11.73333333 0-24.21333333-13.33333333-29.97333333-18.45333333-55.89333333-50.24-85.65333333-123.62666667-80.85333333-198.4-95.04-58.13333333-153.6-161.92-153.6-273.92 0-176.96 144-320.96 320.96-320.96h70.08c-14.29333333-31.78666667-34.24-61.22666667-58.66666667-86.18666667-8-8.10666667-7.78666667-21.22666667 0.32-29.12 3.41333333-3.30666667 7.57333333-5.22666667 11.94666667-5.76 13.01333333-1.6 26.56-2.34666667 40.32-2.34666666 102.18666667 0 196.69333333 44.8 261.22666666 123.52h290.45333334z" fill="" p-id="46199"></path>
    <path d="M660.4 228.2l260.9-0.9c-3 40.8-15.5 80.2-36.4 115.2h-110c-10.3 0-19.3 7.8-20 18.1-0.7 11.3 8.2 20.6 19.3 20.6h82.3c-44.8 50.8-108.1 83-176.4 88.3-10.6 0-19.2 8.6-19.3 19.3 0 7-0.8 13.9-2.3 20.6-8.5 39-40.3 68.7-78.8 75.5 9.6-18.9 14.6-39.9 14.6-61.6 0-13.4-1.9-26.6-5.7-39.2-2.5-8.4-10.2-13.8-18.5-13.8l-147.7 0.2c-10.1 0.4-18.3 8.6-18.5 18.9-0.5 23.1-13 50.1-27.9 66.9-5.5-26.9-15-51.6-16.1-53.2-6.1-8.8-18.1-11-26.9-4.9-11.9 7.4-22.9 16.2-32.8 26.1-44.3 44.3-63 107.5-49.9 168.9 2 9.1 10 15.3 18.9 15.3 1.4 0 5.6-0.8 6.4-1.1 43.2-9.5 87.9-3.8 126.6 15.4-35.3 1.2-70.3 10.4-101.7 27.3-5.8 3.1-8.3 8.5-8.9 9.9-13.4 33.1-18.9 68.9-16.3 104-23.3-36.7-33.8-80.8-28.8-124.9 0.1-0.8 0.1-1.6 0.1-2.4 0.3-7.1-3.3-14.1-9.9-17.8-83.2-46.3-134.9-134.2-134.9-229.4 0-144.6 117.6-262.3 262.3-262.3 0 0 95.4 1.4 100.1-1 9.6-4.8 15.6-14.3 12.2-24.4-10.8-32.3-27-62.9-47.6-90.2 85.4 1.4 164 41 216.2 109 3.9 5 9.6 7.6 15.4 7.6z" fill="" p-id="46200"></path>
    <path d="M818.7 263.8c10 0 18.2 8.1 18.2 18.2s-8.1 18.2-18.2 18.2c-10 0-18.2-8.1-18.2-18.2s8.2-18.2 18.2-18.2zM674.9 277.3c9.1 5.6 12 17.5 6.4 26.6-9.3 15.1-9.3 34.6 0 49.7 5.6 9.1 2.7 21-6.4 26.6-3.2 1.9-6.7 2.9-10.1 2.9-6.5 0-12.9-3.3-16.5-9.2-17-27.8-17-62.3 0-90.1 5.6-9.2 17.5-12.1 26.6-6.5zM601.3 277.3c9.1 5.6 12 17.5 6.4 26.6-9.3 15.1-9.3 34.6 0 49.7 5.6 9.1 2.7 21-6.4 26.6-3.2 1.9-6.6 2.9-10.1 2.9-6.5 0-12.9-3.3-16.5-9.2-17-27.8-17-62.3 0-90.1 5.6-9.2 17.5-12.1 26.6-6.5zM329 295.6c2.9 10.3-3 21-13.3 23.9-60.7 17.3-107.4 66.2-123.2 127.2-4.5 17.3-21.9 14.5-23.4 14.1-10.4-2.6-16.7-13.1-14.1-23.5 18.6-74.5 76.2-133.9 150.1-155 10.2-2.9 20.9 3 23.9 13.3z" fill="" p-id="46201"></path>
</svg>